<?xml version="1.0" encoding="utf-8"?><svg xmlns="http://www.w3.org/2000/svg" xmlns:xlink="http://www.w3.org/1999/xlink"><symbol viewBox="0 0 17.009 21.143" id="arrow-down" xmlns="http://www.w3.org/2000/svg"><path class="aaa" d="M8.504 21.143L0 14.275l.881-1.091 6.923 5.589V0h1.402v18.773l6.922-5.589.881 1.091-8.505 6.868z"/></symbol><symbol viewBox="0 0 21.143 17.009" id="arrow-left" xmlns="http://www.w3.org/2000/svg"><path class="aba" d="M0 8.504L6.867 0l1.092.881-5.59 6.923h18.774v1.402H2.369l5.59 6.922-1.092.881L0 8.504z"/></symbol><symbol viewBox="0 0 21.143 17.009" id="arrow-right" xmlns="http://www.w3.org/2000/svg"><path class="aca" d="M21.143 8.504l-6.868 8.505-1.091-.881 5.589-6.923H0V7.803h18.773L13.184.881 14.275 0l6.868 8.504z"/></symbol><symbol viewBox="0 0 16.971 8.485" id="arrow-short-down" xmlns="http://www.w3.org/2000/svg"><title>arrow-short-down</title><path d="M9.9 7.071H7.071l1.414-1.414zM14.142 0h2.828L8.485 8.485 0 0h2.828l5.657 5.657zM9.9 7.071H7.071l1.414-1.414zM14.142 0h2.828L8.485 8.485 0 0h2.828l5.657 5.657z"/></symbol><symbol viewBox="0 0 8.485 16.971" id="arrow-short-left" xmlns="http://www.w3.org/2000/svg"><title>arrow-short-left</title><path d="M1.414 9.9V7.071l1.414 1.414zm7.071 4.243v2.828L0 8.485 8.485 0v2.828L2.828 8.485zM1.414 9.9V7.071l1.414 1.414zm7.071 4.243v2.828L0 8.485 8.485 0v2.828L2.828 8.485z"/></symbol><symbol viewBox="0 0 8.485 16.971" id="arrow-short-right" xmlns="http://www.w3.org/2000/svg"><title>arrow-short-right</title><path d="M7.071 7.071V9.9L5.657 8.485zM0 2.828V0l8.485 8.485L0 16.971v-2.829l5.657-5.657zm7.071 4.243V9.9L5.657 8.485zM0 2.828V0l8.485 8.485L0 16.971v-2.829l5.657-5.657z"/></symbol><symbol viewBox="0 0 16.971 8.485" id="arrow-short-up" xmlns="http://www.w3.org/2000/svg"><title>arrow-short-up</title><path d="M7.071 1.414H9.9L8.485 2.828zM2.828 8.485H0L8.485 0l8.485 8.485h-2.828L8.485 2.828zm4.243-7.071H9.9L8.485 2.828zM2.828 8.485H0L8.485 0l8.485 8.485h-2.828L8.485 2.828z"/></symbol><symbol viewBox="0 0 17.009 21.143" id="arrow-up" xmlns="http://www.w3.org/2000/svg"><path class="aha" d="M8.504 0l8.505 6.867-.881 1.092-6.923-5.59v18.774H7.803V2.369L.881 7.959 0 6.867 8.504 0z"/></symbol><symbol viewBox="0 0 31.94 31.94" id="avatar" xmlns="http://www.w3.org/2000/svg"><title>avatar</title><path class="aia" d="M15.97 18.2a10.522 10.522 0 0 0-10.325 8.582c.288.275.58.544.889.795a9.5 9.5 0 0 1 18.872 0c.309-.251.6-.52.889-.795A10.522 10.522 0 0 0 15.97 18.2z"/><path class="aia" d="M31.94 15.97A15.97 15.97 0 1 0 5.496 27.996c.312.272.635.528.967.775a15.848 15.848 0 0 0 19.014 0c.332-.247.655-.5.967-.775A15.923 15.923 0 0 0 31.94 15.97zm-5.645 10.812c-.288.275-.58.544-.889.795a14.921 14.921 0 0 1-18.872 0c-.309-.251-.6-.52-.889-.795a14.97 14.97 0 1 1 20.65 0z"/><path class="aia" d="M15.97 19.2a5.05 5.05 0 1 1 5.05-5.05 5.056 5.056 0 0 1-5.05 5.05zm0-9.1a4.05 4.05 0 1 0 4.05 4.05 4.055 4.055 0 0 0-4.05-4.05z"/></symbol><symbol viewBox="0 0 15.575 20.425" id="bag" xmlns="http://www.w3.org/2000/svg"><path class="aja" d="M14.72 6.375V14.8a4.748 4.748 0 0 1-4.75 4.75H5.62A4.748 4.748 0 0 1 .87 14.8V6.375h3V9.95h.5V6.375h6.825V9.95h.5V6.375h3.025zm-10.35-2.1a3.425 3.425 0 1 1 6.85 0V5.85H4.37V4.275zM7.8.375A3.932 3.932 0 0 0 3.87 4.3v1.575H.62a.236.236 0 0 0-.25.25V14.8a5.249 5.249 0 0 0 5.25 5.25h4.325a5.249 5.249 0 0 0 5.25-5.25V6.125a.236.236 0 0 0-.25-.25h-3.25V4.3A3.894 3.894 0 0 0 7.8.375z"/><path class="aja" d="M9.95 20.425H5.625A5.631 5.631 0 0 1 0 14.8V6.125A.611.611 0 0 1 .625 5.5H3.5V4.3A4.305 4.305 0 0 1 7.8 0a4.256 4.256 0 0 1 3.048 1.274A4.207 4.207 0 0 1 12.075 4.3v1.2h2.875a.611.611 0 0 1 .625.625V14.8a5.631 5.631 0 0 1-5.625 5.625zM1.25 6.75v8.05a4.38 4.38 0 0 0 4.375 4.375h4.351a4.38 4.38 0 0 0 4.375-4.375V6.75h-2.276v3.575h-1.25V6.75H4.75v3.575H3.5V6.75H1.25zm3.5-1.275h6.1v-1.2a3.05 3.05 0 0 0-6.1 0v1.2z"/></symbol><symbol viewBox="0 0 19.833 20.372" id="bin" xmlns="http://www.w3.org/2000/svg"><path class="aka" d="M3.635 16.891L3.2 3.993h13.435L16.2 16.891a2.791 2.791 0 0 1-2.821 2.718H6.455a2.809 2.809 0 0 1-2.821-2.718zM6.686 2.07A1.27 1.27 0 0 1 7.968.788h3.9a1.27 1.27 0 0 1 1.279 1.282v1.41H6.686V2.07zm6.692 18.052a3.306 3.306 0 0 0 3.333-3.231l.436-12.923h2.179a.256.256 0 1 0 0-.513H13.66v-1.41A1.784 1.784 0 0 0 11.865.25h-3.9a1.784 1.784 0 0 0-1.792 1.795v1.41H.506a.256.256 0 1 0 0 .513h2.18l.436 12.923a3.323 3.323 0 0 0 3.333 3.231h6.923z"/><path class="aka" d="M13.378 20.372H6.455A3.563 3.563 0 0 1 2.872 16.9L2.444 4.218H.506a.507.507 0 0 1 0-1.013h5.417v-1.16A2.023 2.023 0 0 1 7.968 0h3.9a2.023 2.023 0 0 1 2.042 2.045v1.16h5.417a.507.507 0 0 1 0 1.013H17.39L16.962 16.9a3.563 3.563 0 0 1-3.584 3.472zM.506 3.705l2.422.013.444 13.164a3.066 3.066 0 0 0 3.083 2.99h6.923a3.065 3.065 0 0 0 3.084-2.988l.443-13.166h2.422l-5.917-.013v-1.66A1.529 1.529 0 0 0 11.865.5h-3.9a1.529 1.529 0 0 0-1.542 1.545v1.66H.506zm12.872 16.154H6.455a3.057 3.057 0 0 1-3.07-2.96L2.94 3.744h13.954L16.448 16.9a3.054 3.054 0 0 1-3.07 2.959zm-9.493-2.977a2.558 2.558 0 0 0 2.57 2.478h6.923a2.526 2.526 0 0 0 2.57-2.477l.428-12.639H3.458zM13.4 3.73H6.436V2.07A1.515 1.515 0 0 1 7.968.539h3.9A1.516 1.516 0 0 1 13.4 2.07v1.66zm-6.461-.5H12.9V2.07a1.021 1.021 0 0 0-1.032-1.032h-3.9A1.021 1.021 0 0 0 6.936 2.07v1.16z"/><path class="aka" d="M9.917 15.814a.242.242 0 0 0 .256-.256V7.891a.256.256 0 1 0-.513 0v7.667a.242.242 0 0 0 .256.256"/><path class="aka" d="M9.917 16.064a.49.49 0 0 1-.506-.507V7.891a.506.506 0 1 1 1.013 0v7.667a.49.49 0 0 1-.507.506zm.006-8.173l-.013 7.667.006.007a.041.041 0 0 0 .015 0zM6.84 15.814a.242.242 0 0 0 .26-.256V7.891a.256.256 0 0 0-.513 0v7.667a.242.242 0 0 0 .256.256"/><path class="aka" d="M6.84 16.064a.49.49 0 0 1-.506-.507V7.891a.506.506 0 1 1 1.013 0v7.667a.49.49 0 0 1-.507.506zm.006-8.173l-.013 7.667.007.006a.041.041 0 0 0 .015 0zM12.994 15.814a.242.242 0 0 0 .256-.256V7.891a.256.256 0 1 0-.513 0v7.667a.242.242 0 0 0 .256.256"/><path class="aka" d="M12.993 16.064a.49.49 0 0 1-.506-.507V7.891a.506.506 0 1 1 1.013 0v7.667a.49.49 0 0 1-.507.506zM13 7.891l-.013 7.667.006.007a.046.046 0 0 0 .016 0z"/></symbol><symbol viewBox="0 0 56.204 73.716" id="clips" xmlns="http://www.w3.org/2000/svg"><path class="ala" d="M4.782 48.7a.836.836 0 0 1-.622.276.9.9 0 0 1-.9-.914l-.327-12.1L8.554 31.1l.078 1.37a3.315 3.315 0 0 0 .312 6.194A14.974 14.974 0 0 1 4.782 48.7zM2.2 2.022a.129.129 0 0 1 .14.108l5.394 14.5.349 6.136a3.308 3.308 0 0 0 .321 5.65l.006.134-5.546 4.8-.843-31.164a.15.15 0 0 1 .179-.164zm15.41.108a.129.129 0 0 1 .14-.108.146.146 0 0 1 .178.137l-1.242 45.927a.888.888 0 0 1-.9.887.836.836 0 0 1-.621-.276A14.957 14.957 0 0 1 11 38.664a3.314 3.314 0 0 0 .318-6.192l.224-3.958.354-.306a3.315 3.315 0 0 0-.028-5.443l.35-6.136 5.392-14.5zM9.975 26.806a1.309 1.309 0 1 1 1.308-1.31 1.31 1.31 0 0 1-1.308 1.31zm-1.31 8.708a1.309 1.309 0 1 1 1.272 1.271 1.309 1.309 0 0 1-1.272-1.271zm5.04 14.586a2.863 2.863 0 0 0 2.083.9 2.912 2.912 0 0 0 2.92-2.88l1.241-45.93A2.169 2.169 0 0 0 17.8 0h-.05a2.133 2.133 0 0 0-2.037 1.425l-5.445 14.643a1.048 1.048 0 0 0-.062.3l-.231 4.083-.233-4.087a1 1 0 0 0-.062-.3L4.236 1.425A2.136 2.136 0 0 0 2.2 0 2.174 2.174 0 0 0 0 2.215l1.241 45.872A2.919 2.919 0 0 0 4.161 51a2.858 2.858 0 0 0 2.08-.9 16.977 16.977 0 0 0 3.731-6.064 17.016 17.016 0 0 0 3.733 6.064zm40.44-10.671l-32.967 32a.9.9 0 0 1-1.272 0 .838.838 0 0 1-.241-.622 14.948 14.948 0 0 1 4.023-10.088 3.317 3.317 0 0 0 4.556-4.219l2.925-2.676.479.028h.01a3.517 3.517 0 0 0 .495.048 3.325 3.325 0 0 0 3.264-3.963l4.534-4.147 14.074-6.636a.2.2 0 0 1 .143.124.116.116 0 0 1-.023.147zM12.234 63.545l-.034 1.013v-1.01a.864.864 0 0 1-.807-.542.88.88 0 0 1 .2-.977l8.227-8.885 7.407.444-.915 1.053a3.416 3.416 0 0 0-3.535.771 3.321 3.321 0 0 0-.553 3.861 14.984 14.984 0 0 1-9.987 4.273zm30.612-35.27a.22.22 0 0 1 .167.1.118.118 0 0 1 0 .141l-6.27 14.142-4.058 4.66a3.372 3.372 0 0 0-2.914.927 3.318 3.318 0 0 0-.78 3.315l-.09.1-7.307-.439zM26.093 58.65a1.34 1.34 0 0 1-1.848.025 1.3 1.3 0 1 1 1.848-.024zm7-7.167a1.338 1.338 0 0 1-1.848.023 1.307 1.307 0 1 1 1.825-1.871 1.308 1.308 0 0 1 .019 1.848zM56.032 38.5a2.208 2.208 0 0 0-2.957-1.144L38.95 44.028a.979.979 0 0 0-.25.168l-3.025 2.767 2.692-3.092a.972.972 0 0 0 .162-.255l6.33-14.281a2.13 2.13 0 0 0-.15-2.064 2.237 2.237 0 0 0-3.432-.33L10.125 60.635a2.9 2.9 0 0 0 2.075 4.933h.1a16.983 16.983 0 0 0 6.905-1.736 17.027 17.027 0 0 0-1.563 6.946 2.858 2.858 0 0 0 .827 2.065 2.956 2.956 0 0 0 2.091.873 2.839 2.839 0 0 0 2.044-.862l32.97-32a2.149 2.149 0 0 0 .457-2.362z"/></symbol><symbol viewBox="0 0 69.53 69.53" id="dumbbell" xmlns="http://www.w3.org/2000/svg"><g class="ama"><path class="amb" d="M56.626 7.6l3.312-3.313 5.3 5.3-3.313 3.313zM20.854 43.376l22.523-22.523 5.3 5.3-22.523 22.523zM4.293 59.936L7.6 56.624l5.3 5.3-3.308 3.313-5.3-5.3zM42.714 4.292l.663-.662a4.654 4.654 0 0 1 6.582-.043L50 3.63l15.9 15.9a4.653 4.653 0 0 1 .044 6.58l-.044.044-.662.663L42.714 4.291zM3.63 43.376l.663-.662 22.523 22.523-.662.663a4.656 4.656 0 0 1-6.584.042l-.042-.042L3.63 50a4.653 4.653 0 0 1-.044-6.58l.044-.044zm29.81-40.41a3.718 3.718 0 0 1 5.26-.042l.04.042L66.562 30.79a3.716 3.716 0 0 1 .044 5.255l-.044.044a3.72 3.72 0 0 1-5.261.039l-.039-.039L33.44 8.266a3.72 3.72 0 0 1-.04-5.261zM2.968 33.439a3.72 3.72 0 0 1 5.261-.039l.039.039L36.09 61.261a3.72 3.72 0 0 1 .04 5.261l-.04.04a3.72 3.72 0 0 1-5.261.039l-.039-.039L2.968 38.739a3.72 3.72 0 0 1-.039-5.261zm-1.325-1.325a5.63 5.63 0 0 0 0 7.95l1.325 1.325-.662.663a6.564 6.564 0 0 0 0 9.273L6.28 55.3l-3.312 3.312a1.89 1.89 0 0 0 0 2.65l5.3 5.3a1.89 1.89 0 0 0 2.649 0l3.313-3.314 3.97 3.976a6.566 6.566 0 0 0 9.274 0l.663-.662 1.324 1.325a5.621 5.621 0 1 0 7.95-7.95L27.478 50 50 27.477l9.936 9.936a5.621 5.621 0 1 0 7.95-7.949l-1.326-1.325.663-.662a6.565 6.565 0 0 0 0-9.275l-3.973-3.973 3.312-3.312a1.89 1.89 0 0 0 0-2.65l-5.3-5.3a1.89 1.89 0 0 0-2.649 0L55.3 6.279 51.327 2.3a6.565 6.565 0 0 0-9.275 0l-.662.663-1.325-1.32a5.621 5.621 0 1 0-7.95 7.949l9.937 9.937-22.524 22.524-9.936-9.938a5.63 5.63 0 0 0-7.949 0z"/></g></symbol><symbol viewBox="0 0 7.997 15.994" id="facebook" xmlns="http://www.w3.org/2000/svg"><path d="M7.997 5.713H5.12V4.285s-.161-1.358.772-1.358h1.895V0H4.56S1.859-.012 1.859 2.749c0 .593-.003 1.673-.007 2.964H0V8.07h1.848c-.01 3.747-.024 7.924-.024 7.924H5.12V8.07h2.175l.702-2.357z"/></symbol><symbol viewBox="0 0 26 34.577" id="gloss" xmlns="http://www.w3.org/2000/svg"><path class="aoa" d="M19.942 34.577h-1c0-3.009-2.416-7.558-6.059-7.558v-1c3.643 0 6.059-4.55 6.059-7.559h1c0 3.009 2.416 7.559 6.058 7.559v1c-3.642.001-6.058 4.549-6.058 7.558zm-4.787-8.057a8.816 8.816 0 0 1 4.287 5.239 8.818 8.818 0 0 1 4.286-5.239 8.82 8.82 0 0 1-4.286-5.24 8.818 8.818 0 0 1-4.287 5.24zm-9.649 3.517h-1c0-2.256-1.8-5.666-4.506-5.666v-1c2.708 0 4.506-3.41 4.506-5.666h1c0 2.256 1.8 5.666 4.506 5.666v1c-2.712 0-4.506 3.41-4.506 5.666zM2 23.871a6.889 6.889 0 0 1 3.008 3.665 6.888 6.888 0 0 1 3.009-3.665 6.888 6.888 0 0 1-3.009-3.665A6.889 6.889 0 0 1 2 23.871zm12.084-2.837h-1c0-3.988-3.206-10.017-8.037-10.017v-1c4.832 0 8.037-6.029 8.037-10.017h1c0 3.988 3.206 10.017 8.038 10.017v1c-4.834 0-8.04 6.029-8.04 10.017zM7.62 10.517c2.949 1.183 5.054 4.283 5.962 7.332.908-3.049 3.018-6.149 5.963-7.332-2.95-1.183-5.054-4.284-5.963-7.332-.909 3.048-3.013 6.149-5.962 7.332z"/></symbol><symbol viewBox="0 0 39 27" id="hamburger" xmlns="http://www.w3.org/2000/svg"><title>hamburger</title><path d="M0 0h39v2H0zM0 12.5h39v2H0zM0 25h39v2H0z"/></symbol><symbol viewBox="0 0 128 128" id="instagram" xmlns="http://www.w3.org/2000/svg"><title>instagram</title><path d="M105.843 29.837a7.68 7.68 0 1 1-7.68-7.68 7.68 7.68 0 0 1 7.68 7.68zM64 85.333A21.333 21.333 0 1 1 85.333 64 21.333 21.333 0 0 1 64 85.333zm0-54.2A32.865 32.865 0 1 0 96.865 64 32.865 32.865 0 0 0 64 31.135zm0-19.6c17.089 0 19.113.065 25.861.373a35.4 35.4 0 0 1 11.884 2.2A19.832 19.832 0 0 1 109.1 18.9a19.816 19.816 0 0 1 4.788 7.359 35.429 35.429 0 0 1 2.2 11.884c.308 6.749.373 8.773.373 25.862s-.061 19.11-.361 25.858a35.4 35.4 0 0 1-2.2 11.884 21.2 21.2 0 0 1-12.147 12.147 35.428 35.428 0 0 1-11.884 2.2c-6.748.308-8.772.373-25.861.373s-19.114-.065-25.862-.373a35.4 35.4 0 0 1-11.884-2.2 19.832 19.832 0 0 1-7.359-4.788 19.828 19.828 0 0 1-4.788-7.359 35.428 35.428 0 0 1-2.2-11.884C11.6 83.114 11.53 81.09 11.53 64s.065-19.113.373-25.862a35.4 35.4 0 0 1 2.2-11.884A19.832 19.832 0 0 1 18.9 18.9a19.816 19.816 0 0 1 7.359-4.788 35.428 35.428 0 0 1 11.884-2.2c6.744-.312 8.768-.38 25.857-.38zM64 0C46.619 0 44.439.074 37.613.385A46.975 46.975 0 0 0 22.078 3.36a31.362 31.362 0 0 0-11.336 7.382A31.362 31.362 0 0 0 3.36 22.078 46.98 46.98 0 0 0 .385 37.613C.074 44.439 0 46.619 0 64s.074 19.561.385 26.387a46.98 46.98 0 0 0 2.975 15.535 31.361 31.361 0 0 0 7.382 11.336 31.375 31.375 0 0 0 11.336 7.382 46.98 46.98 0 0 0 15.535 2.975c6.826.311 9.006.385 26.387.385s19.561-.074 26.387-.385a46.98 46.98 0 0 0 15.535-2.975 32.726 32.726 0 0 0 18.718-18.718 46.98 46.98 0 0 0 2.975-15.535c.311-6.826.385-9.006.385-26.387s-.074-19.561-.385-26.387a46.98 46.98 0 0 0-2.975-15.535 31.375 31.375 0 0 0-7.382-11.336 31.375 31.375 0 0 0-11.336-7.382A46.98 46.98 0 0 0 90.387.385C83.561.074 81.381 0 64 0z"/></symbol><symbol viewBox="0 0 87.553 65.699" id="microb" xmlns="http://www.w3.org/2000/svg"><path class="ara" d="M19.221 25.06a1.152 1.152 0 0 1-.988-.55l-4.723-8.567a1.131 1.131 0 1 1 1.977-1.1l4.723 8.567a1.111 1.111 0 0 1-.44 1.538 4.739 4.739 0 0 0-.549.11m9.886-4.174a1.055 1.055 0 0 1-.989-.769l-3.185-9.336a1.112 1.112 0 1 1 2.087-.768l3.18 9.337a1.142 1.142 0 0 1-.66 1.428.826.826 0 0 1-.438.11m9.775-2.636a1.056 1.056 0 0 1-.989-.769L34.6 8.255a1.112 1.112 0 1 1 2.087-.768l3.185 9.335a1.142 1.142 0 0 1-.659 1.428h-.331zM48 15.065a1.055 1.055 0 0 1-.99-.765l-3.185-9.34a1.112 1.112 0 1 1 2.087-.768l3.188 9.335a1.143 1.143 0 0 1-.66 1.428.826.826 0 0 1-.438.11"/><g class="arb"><path class="ara" d="M58.213 11.989a1.168 1.168 0 0 1-1.1-.989l-1.1-9.775a1.1 1.1 0 0 1 2.2-.22l1.1 9.775a1.091 1.091 0 0 1-.988 1.209h-.11z"/></g><path class="ara" d="M28.337 65.7a1.167 1.167 0 0 1-1.1-.988l-.877-9.777a1.1 1.1 0 0 1 2.2-.22l.879 9.776a1.129 1.129 0 0 1-1.1 1.208M41.3 62.844a1.055 1.055 0 0 1-.988-.77l-3.185-9.335a1.112 1.112 0 1 1 2.087-.769l3.186 9.336a1.14 1.14 0 0 1-.66 1.427.827.827 0 0 1-.439.11m10.765-3.734a1.054 1.054 0 0 1-.989-.77L47.888 49a1.112 1.112 0 0 1 2.088-.768l3.185 9.336A1.142 1.142 0 0 1 52.5 59a.655.655 0 0 1-.438.11m9.774-3.185a1.054 1.054 0 0 1-.987-.769l-3.186-9.336a1.112 1.112 0 1 1 2.088-.768l3.184 9.335a1.14 1.14 0 0 1-.66 1.427 2.509 2.509 0 0 0-.439.111m10.875-2.746a1.056 1.056 0 0 1-.989-.769l-3.185-9.336a1.112 1.112 0 1 1 2.087-.768l3.185 9.336a1.14 1.14 0 0 1-.66 1.426 2.469 2.469 0 0 0-.438.111m11.423-10.326a.993.993 0 0 1-.55-.11l-8.566-4.832a1.131 1.131 0 0 1 1.1-1.978l8.567 4.833a1.112 1.112 0 0 1 .44 1.538 1.309 1.309 0 0 1-.989.55M12.96 31.21a.987.987 0 0 1-.549-.11l-8.567-4.942a1.131 1.131 0 1 1 1.1-1.977l8.568 4.833a1.111 1.111 0 0 1 .439 1.537 1.057 1.057 0 0 1-.989.66m63.705-2.856a1.084 1.084 0 0 1-1.1-.989 1.2 1.2 0 0 1 .989-1.208l9.775-.879a1.108 1.108 0 0 1 1.208.989 1.178 1.178 0 0 1-.988 1.208zM1.1 40.547a1.084 1.084 0 0 1-1.1-.989 1.2 1.2 0 0 1 .989-1.208l9.775-.879a1.177 1.177 0 0 1 1.208.989 1.2 1.2 0 0 1-.988 1.208l-9.884.879M73.37 18.25a1.3 1.3 0 0 1-.987-.55 1.181 1.181 0 0 1 .328-1.537l8.459-5.052a1.111 1.111 0 0 1 1.206 1.867l-8.457 5.052a.708.708 0 0 1-.549.22M7.469 55.594a1.306 1.306 0 0 1-.989-.55 1.179 1.179 0 0 1 .33-1.536l8.457-5.054a1.181 1.181 0 0 1 1.538.331 1.207 1.207 0 0 1-.33 1.537l-8.457 5.053a.713.713 0 0 1-.55.219M67 13.417a.661.661 0 0 1-.44-.11 1.09 1.09 0 0 1-.549-1.427l3.845-9.117a1.082 1.082 0 0 1 1.977.879l-3.844 9.116a.962.962 0 0 1-.989.66M17.244 63.612a.659.659 0 0 1-.439-.11 1.089 1.089 0 0 1-.549-1.427l3.844-9.116a1.082 1.082 0 1 1 1.978.878l-3.845 9.116a.962.962 0 0 1-.989.66"/><path class="ara" d="M60.85 12.758a13.257 13.257 0 0 0-4.175.66L22.737 23.632a14.35 14.35 0 0 0-8.568 7.03 14.173 14.173 0 0 0-1.1 10.983l.33 1.208a14.6 14.6 0 0 0 13.84 10.325 13.262 13.262 0 0 0 4.175-.66L65.353 42.3a14.484 14.484 0 0 0 9.664-18.013l-.438-1.208a14.47 14.47 0 0 0-13.73-10.325M27.24 55.265A16.711 16.711 0 0 1 11.313 43.4l-.328-1.209A15.832 15.832 0 0 1 12.3 29.564a16.014 16.014 0 0 1 9.885-8.019L56.127 11.33a17.713 17.713 0 0 1 4.833-.659 16.71 16.71 0 0 1 15.927 11.863l.328 1.208A16.665 16.665 0 0 1 66.123 44.5l-33.94 10.216a26.151 26.151 0 0 1-4.943.549"/><path class="ara" d="M25.7 38.68a4.448 4.448 0 0 0-4.174 6.15 4.355 4.355 0 0 0 2.416 2.417 4.408 4.408 0 0 0 1.648.33 4.572 4.572 0 0 0 4.173-2.746 4.362 4.362 0 0 0-2.416-5.822 3.663 3.663 0 0 0-1.647-.33m0 2.2a1.317 1.317 0 0 1 .878.22 2.173 2.173 0 0 1 1.208 2.966A2.254 2.254 0 0 1 25.7 45.49a1.323 1.323 0 0 1-.88-.22 2.174 2.174 0 0 1-1.205-2.97 2.254 2.254 0 0 1 2.085-1.424m7.58-14.937a4.448 4.448 0 0 0-4.174 6.15 4.351 4.351 0 0 0 2.417 2.417 4.4 4.4 0 0 0 1.647.33 4.576 4.576 0 0 0 4.174-2.747 4.359 4.359 0 0 0-2.416-5.82 4.407 4.407 0 0 0-1.648-.33m0 2.2a1.319 1.319 0 0 1 .879.22 2.174 2.174 0 0 1 1.208 2.966 2.253 2.253 0 0 1-2.087 1.427 1.319 1.319 0 0 1-.879-.22 2.173 2.173 0 0 1-1.208-2.965 2.252 2.252 0 0 1 2.087-1.428m11.533 7.359a4.449 4.449 0 0 0-4.174 6.151 4.351 4.351 0 0 0 2.417 2.416 4.4 4.4 0 0 0 1.647.33 4.574 4.574 0 0 0 4.174-2.746 4.358 4.358 0 0 0-2.417-5.821 4.407 4.407 0 0 0-1.647-.33m0 2.2a1.319 1.319 0 0 1 .879.22 2.173 2.173 0 0 1 1.208 2.958 2.251 2.251 0 0 1-2.087 1.424 1.319 1.319 0 0 1-.879-.22 2.173 2.173 0 0 1-1.208-2.965 2.146 2.146 0 0 1 2.087-1.428m6.37-17.683a3.826 3.826 0 0 0-3.513 2.306 4.235 4.235 0 0 0 0 2.856 3.5 3.5 0 0 0 1.977 1.977 3.026 3.026 0 0 0 1.426.33 3.832 3.832 0 0 0 3.516-2.307 3.718 3.718 0 0 0-1.977-4.833 2.289 2.289 0 0 0-1.429-.33m0 1.758a2.14 2.14 0 0 1 .769.11 1.957 1.957 0 0 1-.769 3.734 2.143 2.143 0 0 1-.768-.11 1.957 1.957 0 0 1 .768-3.734m10.874 7.688a4.449 4.449 0 0 0-4.173 6.151 4.351 4.351 0 0 0 2.416 2.42 4.4 4.4 0 0 0 1.648.33 4.573 4.573 0 0 0 4.173-2.75 4.36 4.36 0 0 0-2.421-5.817 4.009 4.009 0 0 0-1.648-.33m0 2.2a1.323 1.323 0 0 1 .88.22 2.173 2.173 0 0 1 1.207 2.965 2.252 2.252 0 0 1-2.087 1.428 1.316 1.316 0 0 1-.878-.22 2.173 2.173 0 0 1-1.209-2.965 2.252 2.252 0 0 1 2.087-1.428"/></symbol><symbol viewBox="0 0 32.404 35.169" id="microbs" xmlns="http://www.w3.org/2000/svg"><path class="asa" d="M27.026 20.095a2.614 2.614 0 0 1 .09.713 7.138 7.138 0 0 1-2.15 4.748c-1.492 1.206-4.288 1.9-5.541 1.368a.739.739 0 0 1-.525-.624 1.948 1.948 0 0 1 .065-.913v-.006c.251-.68 1.021-.869 2.165-1.095a4.471 4.471 0 0 0 2.155-.81 3.625 3.625 0 0 0 .9-1.537c.075-.213.144-.43.211-.644.413-1.321.7-2.064 1.755-1.967a.934.934 0 0 1 .877.765m-3.408.945l-.056.174-.866-.38a.4.4 0 0 0-.531.21v.012a.42.42 0 0 0 .215.55l.901.396a2.372 2.372 0 0 1-.538.847 1.414 1.414 0 0 1-.3.2l-.608-1.074a.4.4 0 0 0-.546-.159l-.011.006a.422.422 0 0 0-.147.574l.523.924c-.221.054-.448.1-.677.148s-.49.1-.742.165l-.637-1.012a.4.4 0 0 0-.549-.135l-.015.009a.422.422 0 0 0-.122.58l.516.827a2.26 2.26 0 0 0-1.051.844l-.9-.307a.407.407 0 0 0-.514.259v.007a.42.42 0 0 0 .258.53l.881.3a2.653 2.653 0 0 0-.048.416 3.758 3.758 0 0 0 .03.46v.012l-.832.523a.427.427 0 0 0-.136.576.4.4 0 0 0 .56.14l.742-.46a1.769 1.769 0 0 0 .7.5 2.912 2.912 0 0 0 .562.156l-.192.573a.42.42 0 0 0 .253.533.406.406 0 0 0 .516-.253v-.007l.257-.763a7.088 7.088 0 0 0 1.406-.159l.09 1.12a.41.41 0 0 0 .435.383h.006a.427.427 0 0 0 .372-.453l-.1-1.253a9.721 9.721 0 0 0 1.261-.468l.3.6a.4.4 0 0 0 .538.188l.012-.006a.426.426 0 0 0 .176-.564l-.3-.6a6.224 6.224 0 0 0 .761-.512 4.777 4.777 0 0 0 .483-.474l.907.69a.4.4 0 0 0 .561-.074l.009-.012a.427.427 0 0 0-.085-.587l-.879-.67a8.279 8.279 0 0 0 .812-1.5l.819.444a.4.4 0 0 0 .55-.18.424.424 0 0 0-.176-.566l-.907-.48a7.793 7.793 0 0 0 .305-1.315h1.367a.413.413 0 0 0 .407-.419.414.414 0 0 0-.408-.419h-1.32a3.3 3.3 0 0 0-.112-.8 2.288 2.288 0 0 0-.13-.3l.94-.7a.428.428 0 0 0 .09-.585.4.4 0 0 0-.556-.1l-.014.01-.947.708a1.753 1.753 0 0 0-.944-.38l-.084-1.019a.411.411 0 0 0-.439-.381.415.415 0 0 0-.371.453l.084 1.01a1.9 1.9 0 0 0-1.132.848l-.567-.5a.4.4 0 0 0-.565.035l-.01.012a.428.428 0 0 0 .045.59l.708.621q-.163.428-.3.867M5.893 27.853c-.109-1.94.928-4.7 2.064-5.46a.708.708 0 0 1 .8-.093 1.354 1.354 0 0 1 .884 1.232 5.106 5.106 0 0 1-.547 1.8 4.758 4.758 0 0 0-.58 2.284 3.637 3.637 0 0 0 .716 1.633c.127.185.26.367.4.547.82 1.1 1.252 1.762.57 2.6a.912.912 0 0 1-1.11.306c-1.39-.465-3.09-3.05-3.197-4.849m4.093 6.887l-.026-1.2a1.772 1.772 0 0 0 .841-.582l.863.509a.4.4 0 0 0 .549-.142l.007-.013a.425.425 0 0 0-.15-.572l-.844-.5a2.009 2.009 0 0 0-.037-1.45l.711-.19a.421.421 0 0 0 .29-.513.407.407 0 0 0-.491-.3h-.007l-.9.244c-.166-.26-.35-.508-.525-.742l-.108-.148.8-.516a.428.428 0 0 0 .128-.578.4.4 0 0 0-.55-.139l-.013.008-.833.54a2.386 2.386 0 0 1-.371-.937 1.452 1.452 0 0 1 .014-.368l1.207.1a.411.411 0 0 0 .438-.382.42.42 0 0 0-.374-.45l-1.035-.09c.083-.217.174-.438.268-.657q.156-.357.3-.72l1.162.041a.412.412 0 0 0 .42-.4.427.427 0 0 0-.393-.434l-.947-.034a2.373 2.373 0 0 0-.076-1.372l.75-.578a.428.428 0 0 0 .083-.587.4.4 0 0 0-.559-.094l-.012.009-.734.564a3.024 3.024 0 0 0-.7-.507h-.01l.056-1a.418.418 0 0 0-.378-.452.412.412 0 0 0-.431.392l-.05.886a1.743 1.743 0 0 0-.8.3 3.02 3.02 0 0 0-.448.384l-.346-.486a.4.4 0 0 0-.557-.1l-.013.01a.428.428 0 0 0-.088.586l.457.65a7.545 7.545 0 0 0-.673 1.28l-.951-.559a.4.4 0 0 0-.55.143l-.007.012a.43.43 0 0 0 .15.573l1.063.621a10.256 10.256 0 0 0-.339 1.333l-.654-.09a.41.41 0 0 0-.462.416.416.416 0 0 0 .354.415l.65.09q-.03.3-.034.606c0 .113 0 .222.008.33a4.911 4.911 0 0 0 .1.679l-1.063.37a.419.419 0 0 0-.255.532.4.4 0 0 0 .517.263l1.03-.359a8.374 8.374 0 0 0 .73 1.54l-.81.443a.42.42 0 0 0-.169.566.4.4 0 0 0 .539.181l.013-.007.889-.484a7.378 7.378 0 0 0 .885 1l-.777 1.158a.425.425 0 0 0 .1.584.4.4 0 0 0 .558-.094l.009-.013.751-1.115a3.056 3.056 0 0 0 .7.358 2.049 2.049 0 0 0 .316.062l.027 1.195a.414.414 0 0 0 .417.41.429.429 0 0 0 .4-.43M8.8 14.849a1.318 1.318 0 0 1 .174-1.13 2.693 2.693 0 0 1 1.341-.83l.018-.005a15.621 15.621 0 0 1 3.776-.54 5.479 5.479 0 0 1 4.116 1.506 1.981 1.981 0 0 1 .57 1.336 1.56 1.56 0 0 1-.013.215 1.008 1.008 0 0 1-.366.761.8.8 0 0 1-.22.1h-.012a5.351 5.351 0 0 1-2.414-.385q-.441-.135-.887-.25l-.012-.005h-.01a5.688 5.688 0 0 0-.65-.132 8.142 8.142 0 0 0-2.081.153c-1.83.28-3.05.374-3.326-.8m8.106 3.6l.184-1.365a3.549 3.549 0 0 0 .986.05l.789 1.212a.4.4 0 0 0 .552.123l.014-.009a.425.425 0 0 0 .112-.581l-.668-1.025a1.623 1.623 0 0 0 .628-.912l1.113.207a.41.41 0 0 0 .473-.335.42.42 0 0 0-.329-.487L19.6 15.1a2.6 2.6 0 0 0-.2-.92l.932-.487a.426.426 0 0 0 .18-.563.4.4 0 0 0-.534-.191l-.016.008-.99.516c-.048-.061-.085-.126-.139-.187a4.487 4.487 0 0 0-.78-.669l.587-1.155a.425.425 0 0 0-.173-.566.4.4 0 0 0-.544.166l-.006.012-.569 1.12a6.556 6.556 0 0 0-1.2-.45l-.22-1.482a.41.41 0 0 0-.46-.353.417.417 0 0 0-.341.477l.176 1.188a6.525 6.525 0 0 0-1.22-.062l-.146.01-.18-1.028a.41.41 0 0 0-.47-.34h-.014a.417.417 0 0 0-.328.488l.163.932q-.514.04-1.026.1l-.431-1.1a.4.4 0 0 0-.521-.235h-.01a.42.42 0 0 0-.225.546l.358.91q-.444.082-.879.206l-.888-1.133a.4.4 0 0 0-.56-.079l-.014.011a.423.423 0 0 0-.066.589l.714.921a3.53 3.53 0 0 0-.86.523l-.775-.636a.4.4 0 0 0-.563.054l-.01.013a.423.423 0 0 0 .064.589l.755.62a1.955 1.955 0 0 0-.21.635l-1.328.06a.42.42 0 0 0 .036.842L8 14.941c.007.035 0 .068.013.1a2.383 2.383 0 0 0 .189.522l-.683.908a.423.423 0 0 0 .073.588.4.4 0 0 0 .561-.059l.01-.013.575-.764a2.3 2.3 0 0 0 1.115.407l-.14.963a.415.415 0 0 0 .343.476.41.41 0 0 0 .463-.349l.153-1.06a11.819 11.819 0 0 0 1.2-.126l.08.992a.41.41 0 0 0 .435.383.419.419 0 0 0 .373-.453l-.085-1.042a5.861 5.861 0 0 1 1.43-.086c.06.007.135.03.2.04L14.1 17.4a.415.415 0 0 0 .316.495.408.408 0 0 0 .48-.32v-.003l.2-1.015.441.127c.25.075.5.15.75.217l-.187 1.431a.415.415 0 0 0 .348.472.41.41 0 0 0 .46-.354M24.49 4.97c.231.227.453.443.672.641a.058.058 0 0 0 .01.012c0 .005.011.005.016.01a5.816 5.816 0 0 0 .514.423 8.249 8.249 0 0 0 1.912.855c1.568.559 2.633 1.015 2.633 1.946a1.428 1.428 0 0 1-.044.343 1.278 1.278 0 0 1-.661.918c-1.269.626-4-.671-5.172-1.225A5.668 5.668 0 0 1 21.4 5.6a1.933 1.933 0 0 1 .2-1.64.967.967 0 0 1 .668-.5.787.787 0 0 1 .238.015h.016a5.5 5.5 0 0 1 1.964 1.49m-2.44-3.611a.354.354 0 0 0 0 .046l.13 1.226a1.566 1.566 0 0 0-.967.51l-.893-.713a.4.4 0 0 0-.562.061l-.01.013a.424.424 0 0 0 .072.588l.924.738a2.6 2.6 0 0 0-.23.922l-1.038-.012a.414.414 0 0 0-.412.415v.005a.416.416 0 0 0 .4.42l1.1.011c.015.078.026.154.047.232a4.616 4.616 0 0 0 .39.965l-1.04.745a.424.424 0 0 0-.1.584.4.4 0 0 0 .554.114l.014-.01 1.008-.723a6.868 6.868 0 0 0 .86.97l-.472 1.42a.433.433 0 0 0-.022.135.415.415 0 0 0 .276.4.405.405 0 0 0 .515-.251v-.009l.377-1.136a6.755 6.755 0 0 0 1.054.636l.134.061-.3 1a.419.419 0 0 0 .268.526.406.406 0 0 0 .508-.268v-.007l.274-.9q.48.21.958.394l-.11 1.176a.416.416 0 0 0 .367.458.411.411 0 0 0 .444-.375l.091-.976c.3.1.588.173.872.235l.27 1.445a.409.409 0 0 0 .473.334.424.424 0 0 0 .325-.49l-.217-1.16a3.515 3.515 0 0 0 1-.054l.4.932a.4.4 0 0 0 .537.214.424.424 0 0 0 .208-.553l-.394-.919a1.876 1.876 0 0 0 .473-.455l1.207.581a.4.4 0 0 0 .537-.191l.005-.011a.424.424 0 0 0-.2-.558l-1.2-.579c.01-.035.025-.064.034-.1a2.46 2.46 0 0 0 .067-.553l1.014-.48a.425.425 0 0 0 .2-.555.4.4 0 0 0-.516-.228h-.01l-.854.4a2.393 2.393 0 0 0-.805-.892l.556-.788a.426.426 0 0 0-.09-.585.4.4 0 0 0-.56.078l-.01.014-.613.873c-.364-.17-.744-.318-1.12-.456l.374-.916a.425.425 0 0 0-.218-.549.4.4 0 0 0-.529.212L27.867 5l-.394.963a5.945 5.945 0 0 1-1.307-.605c-.052-.036-.107-.082-.161-.125l.656-.825a.429.429 0 0 0-.061-.587.4.4 0 0 0-.565.049l-.009.011-.64.8q-.166-.161-.33-.324c-.188-.185-.378-.37-.568-.55l.815-1.176a.428.428 0 0 0-.1-.585.4.4 0 0 0-.559.086l-.009.013-.771 1.128a3.6 3.6 0 0 0-.851-.514l-.154-1.45a.41.41 0 0 0-.445-.372.415.415 0 0 0-.363.416M2.4 8.14C2.266 6.625 3.871 4 5.427 3.176c1.685-.9 4.558-1.032 5.693-.27a.759.759 0 0 1 .407.654v.056c-.091 1.471-.987 1.544-2.563 1.545a4.432 4.432 0 0 0-2.264.38 3.551 3.551 0 0 0-1.163 1.333c-.113.194-.22.393-.326.592-.647 1.216-1.063 1.89-2.084 1.59a.946.946 0 0 1-.72-.92m1.18 2.819l.1-1.007a1.887 1.887 0 0 0 1.268-.614l.466.6a.4.4 0 0 0 .561.076l.011-.01a.428.428 0 0 0 .063-.59l-.58-.746c.163-.261.31-.534.448-.793.028-.054.058-.108.087-.161l.78.54a.4.4 0 0 0 .567-.114.428.428 0 0 0-.11-.582l-.818-.565a2.323 2.323 0 0 1 .683-.728 1.348 1.348 0 0 1 .333-.134l.4 1.173a.406.406 0 0 0 .513.258h.007a.422.422 0 0 0 .25-.534l-.345-1.011C8.5 6 8.731 6 8.963 6s.5 0 .76-.014L10.16 7.1a.4.4 0 0 0 .53.232.424.424 0 0 0 .227-.545l-.354-.9a2.241 2.241 0 0 0 1.19-.628l.82.471a.4.4 0 0 0 .548-.15l.006-.01a.425.425 0 0 0-.156-.571l-.8-.46a3.21 3.21 0 0 0 .166-.866v-.016l.915-.357a.424.424 0 0 0 .238-.54.4.4 0 0 0-.514-.249h-.011l-.807.312a1.811 1.811 0 0 0-.592-.63 2.97 2.97 0 0 0-.524-.261l.294-.526a.425.425 0 0 0-.15-.572.4.4 0 0 0-.55.143L10.629 1l-.392.7a7.02 7.02 0 0 0-1.41-.116L8.94.462A.418.418 0 0 0 8.577 0a.41.41 0 0 0-.447.37L8 1.625a9.7 9.7 0 0 0-1.324.215l-.182-.647a.406.406 0 0 0-.8.118.446.446 0 0 0 .016.118l.184.645a6.091 6.091 0 0 0-.841.356 4.277 4.277 0 0 0-.562.37l-.763-.854a.4.4 0 0 0-.564-.036l-.012.011a.425.425 0 0 0-.024.593l.737.826A8.3 8.3 0 0 0 2.8 4.653l-.733-.588a.4.4 0 0 0-.563.06l-.004.012a.424.424 0 0 0 .069.588l.8.648a7.633 7.633 0 0 0-.535 1.233l-1.35-.264A.409.409 0 0 0 0 6.755a.414.414 0 0 0 .331.41l1.306.256a3.741 3.741 0 0 0-.057.542c0 .089 0 .176.012.26a2.133 2.133 0 0 0 .073.322l-1.053.51a.428.428 0 0 0-.195.557.4.4 0 0 0 .543.2L2.018 9.3a1.777 1.777 0 0 0 .858.557l-.1 1.016a.414.414 0 0 0 .362.46.41.41 0 0 0 .448-.369"/></symbol><symbol viewBox="0 0 74 74" id="molecules" xmlns="http://www.w3.org/2000/svg"><title>chemical</title><defs><path id="ata" d="M0 72h72V0H0z"/></defs><g transform="translate(1 1)" fill="none" fill-rule="evenodd"><path d="M39.484 48.774a5.839 5.839 0 0 0-1.161 3.484 5.813 5.813 0 0 0 5.806 5.807 5.813 5.813 0 0 0 5.806-5.807 5.833 5.833 0 0 0-1.16-3.483l-4.646-6.194-4.645 6.193zm4.645 11.613c-4.481 0-8.129-3.648-8.129-8.129 0-1.749.577-3.48 1.626-4.877l6.503-8.672 6.503 8.673a8.167 8.167 0 0 1 1.626 4.876c0 4.481-3.648 8.13-8.129 8.13zM30.194 33.677a5.813 5.813 0 0 1-5.807-5.806c0-1.248.412-2.486 1.161-3.484l4.646-6.193 4.645 6.194A5.833 5.833 0 0 1 36 27.871a5.813 5.813 0 0 1-5.806 5.806zm0-19.355l-6.504 8.672a8.173 8.173 0 0 0-1.625 4.877c0 4.481 3.647 8.129 8.129 8.129 4.481 0 8.129-3.648 8.129-8.129 0-1.749-.578-3.48-1.626-4.876l-6.503-8.673z" stroke="#FFF" stroke-width=".5" fill="#E5C8FF"/><path d="M67.355 38.323A2.325 2.325 0 0 1 65.032 36a2.325 2.325 0 0 1 2.323-2.323A2.325 2.325 0 0 1 69.677 36a2.325 2.325 0 0 1-2.322 2.323zm-36 4.15l6.387-3.725 6.387-3.726 12.774 7.452v14.924l-7.164 4.18-5.61 3.272-12.774-7.452V42.473zm11.613-9.462l-6.387 3.725-6.387 3.726-6.388-3.726-6.387-3.725V18.086l12.775-7.452 12.774 7.452V33.01zM13.935 69.677a2.325 2.325 0 0 1-2.322-2.322 2.325 2.325 0 0 1 2.322-2.323 2.325 2.325 0 0 1 2.323 2.323 2.325 2.325 0 0 1-2.323 2.322zm-9.29-56.903a2.325 2.325 0 0 1-2.322-2.322 2.325 2.325 0 0 1 2.322-2.323 2.325 2.325 0 0 1 2.323 2.323 2.325 2.325 0 0 1-2.323 2.322zm62.71 18.58A4.65 4.65 0 0 0 62.71 36c0 .528.108 1.029.27 1.503l-4.924 2.954-12.766-7.446V18.086l13.936-8.13V0h-2.323v8.624L44.13 16.076 31.355 8.624V0h-2.323v8.624L16.28 16.063l-7.148-4.468c.094-.368.16-.746.16-1.143a4.65 4.65 0 0 0-4.646-4.646A4.65 4.65 0 0 0 0 10.452a4.65 4.65 0 0 0 4.645 4.645 4.625 4.625 0 0 0 3.367-1.462l7.085 4.428V33.01l-13.36 7.792 1.17 2.008 13.351-7.79 6.387 3.725 6.387 3.726v14.925l-11.693 6.82a4.616 4.616 0 0 0-3.404-1.507 4.65 4.65 0 0 0-4.645 4.645A4.65 4.65 0 0 0 13.935 72a4.65 4.65 0 0 0 4.646-4.645 4.61 4.61 0 0 0-.142-1.088l11.755-6.858 12.774 7.451V72h2.322v-5.14l5.627-3.283 7.153-4.172 7.548 4.313 1.152-2.016-7.544-4.311V42.464l5.037-3.023c.824.74 1.9 1.204 3.092 1.204A4.65 4.65 0 0 0 72 36a4.65 4.65 0 0 0-4.645-4.645z" stroke="#FFF" stroke-width=".5" fill="#E5C8FF"/><mask id="atb" fill="#fff"><use xlink:href="#ata"/></mask><path fill="#E5C8FF" mask="url(#atb)" d="M61.548 26.71h2.323v-2.323h-2.323zM56.903 26.71h2.323v-2.323h-2.323zM52.258 26.71h2.323v-2.323h-2.323zM19.742 51.097h2.323v-2.323h-2.323zM15.097 51.097h2.322v-2.323h-2.322zM10.452 51.097h2.322v-2.323h-2.322z"/></g></symbol><symbol viewBox="0 0 80.501 75.286" id="package-heart" xmlns="http://www.w3.org/2000/svg"><path class="aua" d="M73.161 47.209a5.128 5.128 0 0 1 3.75 1.712 6.1 6.1 0 0 1 0 8.207L65.469 69.411l-11.44-12.283a6.1 6.1 0 0 1 0-8.207 5.015 5.015 0 0 1 7.5 0l3.288 3.56a.9.9 0 0 0 1.277 0l3.316-3.56a5.123 5.123 0 0 1 3.75-1.712zm-3.343-30.9v30.085a7.179 7.179 0 0 0-1.658 1.331L65.47 50.6l-2.69-2.88a6.73 6.73 0 0 0-10.028 0 7.838 7.838 0 0 0 0 10.6l4.783 5.136-20.762 9.351v-43.29l15.653-6.249V35.9a.87.87 0 0 0 1.74 0V22.589zm-67.829 0l33.045 13.209v43.29L1.989 57.942V16.311zM18.512 9l32.447 12.99L35.9 28 3.456 15.034 18.511 9zM35.9 2.044l32.447 12.99L53.3 21.039 20.849 8.077zm0-1.793a.81.81 0 0 0-.323.049L.929 14.164a.9.9 0 0 0-.679.869v43.48a.9.9 0 0 0 .707.87L35.416 74.9a.946.946 0 0 0 1.059-.054l22.338-10.029 6.006 6.44a.857.857 0 0 0 1.277 0l12.092-12.933a7.838 7.838 0 0 0 0-10.6 6.778 6.778 0 0 0-6.631-2.038V15.034a.9.9 0 0 0-.76-.9L36.229.3A.807.807 0 0 0 35.9.251z"/></symbol><symbol viewBox="0 0 55.465 72.454" id="packaging" xmlns="http://www.w3.org/2000/svg"><path class="ava" d="M27.728 71.916l.184.056a.9.9 0 0 0 .322.063H54.54a.927.927 0 0 0 .925-.927V32.633a.88.88 0 0 0-.166-.525V32.1l-12.13-17.186h.965a.947.947 0 0 0 1.006-.926V8.765a.926.926 0 0 0-.926-.924h-1.506l2.4-6.6A.939.939 0 0 0 45 .393.929.929 0 0 0 44.236 0H10.248A.912.912 0 0 0 9.5.393a.921.921 0 0 0-.115.847l2.4 6.6h-1.537a.926.926 0 0 0-.925.924v5.223a.927.927 0 0 0 .925.926H12.3L.17 32.1a.938.938 0 0 0-.17.533L.016 71.24l.076.26H.087l.029.042a.917.917 0 0 0 .112.164.9.9 0 0 0 .2.182 1.2 1.2 0 0 0 .21.094 1.043 1.043 0 0 0 .282.052h26.311a1 1 0 0 0 .234-.034l.217.454-.122-.485zM42.919 1.852l-2.178 5.989h-26.2l2.179-5.989h26.2zm-31.347 0h3.174l-1.587 4.366zm-.4 11.21V9.69h32.117v3.373H11.172zM1.849 32.925l11.3-16.019v47.06l-11.3 5.647V32.925zm19.339 37.258H6.969l-.223-.947 7.333-3.661 7.333 3.661zm5.118-.572L15 63.966V16.9l11.3 16.022v36.689zm-10.442-54.7h25.044l12.707 18.014v37.259H28.156V32.633a.89.89 0 0 0-.166-.527z"/></symbol><symbol viewBox="0 0 19.573 19.568" id="pencil" xmlns="http://www.w3.org/2000/svg"><title>pencil</title><path class="awa" d="M14.949.143a.523.523 0 0 0-.718 0L11.568 2.8v.03l-.051.025L1.283 13.091a.5.5 0 0 0-.139.259L.01 18.959a.5.5 0 0 0 .138.459.511.511 0 0 0 .459.14l5.61-1.134a.513.513 0 0 0 .259-.14L19.424 5.336a.508.508 0 0 0 0-.718zM4.238 11.571L11.89 3.92l1.52 1.519-.088.088-7.653 7.652L4.15 11.66zm1.627 5.888l-.037.007-4.672.944.952-4.71.027-.027 1.3-1.295 3.757 3.757zm9.695-9.694l-7.653 7.653L6.388 13.9l.088-.089 7.652-7.651 1.52 1.52zm.806-.807L12.608 3.2l1.982-1.98 3.758 3.757z"/></symbol><symbol viewBox="0 0 10.03 13" id="pinterest" xmlns="http://www.w3.org/2000/svg"><title>icon-pinterest</title><path d="M5.32 0C1.78 0 0 2.54 0 4.67a2.88 2.88 0 0 0 1.53 2.85.26.26 0 0 0 .37-.19l.15-.6a.37.37 0 0 0-.11-.42 2.15 2.15 0 0 1-.49-1.46 3.53 3.53 0 0 1 3.66-3.58 2.79 2.79 0 0 1 3.1 2.86c0 2.15-.95 4-2.36 4a1.16 1.16 0 0 1-1.18-1.44 16.06 16.06 0 0 0 .66-2.65 1 1 0 0 0-1-1.12 1.71 1.71 0 0 0-1.44 1.93 2.88 2.88 0 0 0 .24 1.18l-1 4.07a8.75 8.75 0 0 0 0 2.92 7.9 7.9 0 0 0 1.47-2.48c.09-.33.52-2.05.52-2.05a2.13 2.13 0 0 0 1.82.93c2.39 0 4-2.19 4-5.12A4.45 4.45 0 0 0 5.32 0z"/></symbol><symbol viewBox="0 0 29.688 29.688" id="play" xmlns="http://www.w3.org/2000/svg"><title>play</title><path d="M14.844 29.688a14.844 14.844 0 1 1 14.844-14.844 14.844 14.844 0 0 1-14.844 14.844zm5.283-14.844l-8.82-5.412v10.823z"/></symbol><symbol viewBox="0 0 94.99 48.6" id="rainbow" xmlns="http://www.w3.org/2000/svg"><path class="aza" d="M47.495 24.3a23.16 23.16 0 0 1 23.162 22.09H61.75a14.293 14.293 0 0 0-28.511 0h-8.906A23.162 23.162 0 0 1 47.495 24.3m0-11.045A34.212 34.212 0 0 1 81.7 46.391h-8.834a25.394 25.394 0 0 0-50.74 0h-8.837a34.212 34.212 0 0 1 34.206-33.136m0-11.046a45.212 45.212 0 0 1 45.183 44.182h-8.767a36.432 36.432 0 0 0-72.831 0H2.313A45.211 45.211 0 0 1 47.495 2.209m0-2.209A47.513 47.513 0 0 0 0 47.495a1.1 1.1 0 0 0 1.105 1.1H34.24a1.1 1.1 0 0 0 1.1-1.1 12.15 12.15 0 0 1 24.3 0 1.1 1.1 0 0 0 1.1 1.1h33.145a1.1 1.1 0 0 0 1.105-1.1A47.512 47.512 0 0 0 47.495 0"/></symbol><symbol viewBox="0 0 61.411 68.019" id="skrubber" xmlns="http://www.w3.org/2000/svg"><path class="baa" d="M26.435 59.8L1.61 34.976 34.976 1.611 59.8 26.435zM46.12 46.039a5.407 5.407 0 0 1-.059.791 5.211 5.211 0 0 1-3.358 4.1.564.564 0 0 0-.077 1.022 5.826 5.826 0 0 1 3 5.075 5.888 5.888 0 0 1-.066.875 5.819 5.819 0 0 1-9.672 3.436.562.562 0 0 0-.874.147 9.873 9.873 0 0 1-17.542-9.056L26.037 61a.564.564 0 0 0 .8 0l18.16-18.159a5.18 5.18 0 0 1 1.126 3.2zM17.575 16.613a5.291 5.291 0 0 1-5-7.058l-.531-.188.531.186A5.289 5.289 0 0 1 19.33 6.31a5.234 5.234 0 0 1 2.79 2.33.563.563 0 0 0 1.044-.358 4.5 4.5 0 0 1-.038-.582 3.725 3.725 0 0 1 .214-1.268A3.988 3.988 0 0 1 30 5L18.467 16.526a4.913 4.913 0 0 1-.892.088zm43.586 9.821a.559.559 0 0 0-.165-.4L35.375.415a.564.564 0 0 0-.8 0l-3.8 3.8a5.037 5.037 0 0 0-1.973-1.288 5.113 5.113 0 0 0-6.531 3.134 4.751 4.751 0 0 0-.183.709 6.262 6.262 0 0 0-2.389-1.518 6.416 6.416 0 0 0-8.191 3.932 6.415 6.415 0 0 0 5.752 8.548L.415 34.578a.564.564 0 0 0 0 .8L16.643 51.6a10.9 10.9 0 0 0-1.178 3.511 11 11 0 0 0 20.2 7.484 6.914 6.914 0 0 0 3.1 1.308 7.074 7.074 0 0 0 1.045.078 6.936 6.936 0 0 0 4.219-12.445A6.291 6.291 0 0 0 47.175 47a6.474 6.474 0 0 0 .072-.96 6.342 6.342 0 0 0-1.441-4.014L61 26.833a.56.56 0 0 0 .165-.4z"/><path class="baa" d="M26.355 68.019a11.255 11.255 0 0 1-11.266-11.246 11.374 11.374 0 0 1 .129-1.7 11.131 11.131 0 0 1 1.118-3.427l-16.1-16.1a.814.814 0 0 1 0-1.15l16.475-16.467a6.579 6.579 0 0 1-1.352-.319 6.679 6.679 0 0 1 2.212-12.979 6.665 6.665 0 0 1 2.216.38 6.46 6.46 0 0 1 2.161 1.269c.027-.1.058-.2.1-.308a5.362 5.362 0 0 1 6.849-3.286 5.223 5.223 0 0 1 1.89 1.17L34.4.238A.806.806 0 0 1 34.976 0a.807.807 0 0 1 .575.239L61.173 25.86a.813.813 0 0 1 0 1.15L46.14 42.042a6.618 6.618 0 0 1 1.36 3.995 6.69 6.69 0 0 1-.075 1 6.519 6.519 0 0 1-2.956 4.534A7.233 7.233 0 0 1 47 57.027a7.2 7.2 0 0 1-7.189 7.205 7.461 7.461 0 0 1-1.082-.08 7.091 7.091 0 0 1-3-1.2 11.337 11.337 0 0 1-9.374 5.067zM17.571 5.131a6.176 6.176 0 0 0-.292 12.346l.563.023L.592 34.754a.314.314 0 0 0 0 .443L16.95 51.555l-.087.163a10.694 10.694 0 0 0-1.151 3.431A10.748 10.748 0 0 0 24.74 67.4a10.739 10.739 0 0 0 10.714-4.936l.144-.229.217.165a6.638 6.638 0 0 0 2.985 1.258 7 7 0 0 0 1.009.074 6.742 6.742 0 0 0 6.614-5.7 6.844 6.844 0 0 0 .075-1.008 6.733 6.733 0 0 0-2.623-5.291l-.3-.229.328-.187a6.033 6.033 0 0 0 3.019-4.36 6.236 6.236 0 0 0 .078-.92 6.116 6.116 0 0 0-1.384-3.855l-.144-.175 15.35-15.35a.313.313 0 0 0 0-.444L35.2.592A.308.308 0 0 0 34.977.5a.31.31 0 0 0-.222.092l-3.977 3.976-.178-.185a4.769 4.769 0 0 0-1.875-1.225 4.862 4.862 0 0 0-6.212 2.981 4.551 4.551 0 0 0-.173.673l-.09.466-.333-.338a5.981 5.981 0 0 0-2.294-1.458 6.158 6.158 0 0 0-2.05-.352zm8.787 61.763a10.122 10.122 0 0 1-9.108-14.572l.153-.315 8.813 8.812a.321.321 0 0 0 .444 0l18.356-18.36.174.222a5.4 5.4 0 0 1 1.18 3.357 5.559 5.559 0 0 1-.062.828 5.489 5.489 0 0 1-3.517 4.3.317.317 0 0 0-.205.271.322.322 0 0 0 .162.3 6.066 6.066 0 1 1-7.029 9.788.3.3 0 0 0-.266-.077.309.309 0 0 0-.221.158 10.108 10.108 0 0 1-8.874 5.288zm-8.81-14.033a9.586 9.586 0 0 0-.721 2.458 9.643 9.643 0 0 0 9.529 11.075 9.606 9.606 0 0 0 8.436-5.026.812.812 0 0 1 1.264-.211 5.549 5.549 0 0 0 2.916 1.388 5.577 5.577 0 0 0 6.4-5.515 5.561 5.561 0 0 0-2.87-4.856.815.815 0 0 1 .11-1.476 4.989 4.989 0 0 0 3.2-3.905 5.085 5.085 0 0 0 .056-.754 4.871 4.871 0 0 0-.9-2.821L27.01 61.171a.836.836 0 0 1-1.151 0zm8.888 7.293L1.257 34.976 34.976 1.258l25.177 25.177zM1.964 34.976l24.471 24.471 33.011-33.012-24.47-24.47zm15.61-18.113a5.542 5.542 0 0 1-5.312-7.153l-.3-.106.166-.472.3.1a5.539 5.539 0 0 1 6.986-3.162 5.459 5.459 0 0 1 2.92 2.438.314.314 0 0 0 .582-.2 4.686 4.686 0 0 1-.04-.608 4 4 0 0 1 .224-1.349 4.24 4.24 0 0 1 5.412-2.6 4.182 4.182 0 0 1 1.659 1.075l.173.174-11.755 11.757-.077.014a5.09 5.09 0 0 1-.938.092zm-4.732-7.307l-.029.083a5.051 5.051 0 0 0 4.762 6.724 4.506 4.506 0 0 0 .771-.07L29.64 5a3.676 3.676 0 0 0-1.289-.776 3.741 3.741 0 0 0-4.775 2.292 3.464 3.464 0 0 0-.2 1.188 4.271 4.271 0 0 0 .037.546.813.813 0 0 1-1.508.517 4.966 4.966 0 0 0-2.655-2.219 5.039 5.039 0 0 0-6.408 3.008z"/><path class="baa" d="M16.187 38.2a2.657 2.657 0 1 1 1.879-.778 2.638 2.638 0 0 1-1.879.778m0-6.441a3.784 3.784 0 1 0 2.676 1.108 3.775 3.775 0 0 0-2.676-1.108"/><path class="baa" d="M16.191 39.579h-.009a4.034 4.034 0 0 1 0-8.068 4.034 4.034 0 0 1 .009 8.068zm0-.5a3.534 3.534 0 0 0 0-7.068 3.534 3.534 0 0 0 0 7.068zm0-.627a2.907 2.907 0 1 1 2.055-.851 2.884 2.884 0 0 1-2.059.851zm0-5.313a2.407 2.407 0 0 0-1.7 4.109 2.466 2.466 0 0 0 3.4 0 2.407 2.407 0 0 0-1.704-4.11zM43.345 23.987a2.656 2.656 0 1 1-.778 1.879 2.644 2.644 0 0 1 .778-1.879m1.879 5.663a3.786 3.786 0 1 0-2.676-1.109 3.776 3.776 0 0 0 2.676 1.109"/><path class="baa" d="M45.224 29.9a4.034 4.034 0 0 1 0-8.068h.009a4.034 4.034 0 0 1-.009 8.068zm0-7.568a3.531 3.531 0 1 0 .008 0h-.012zm0 6.441a2.908 2.908 0 1 1 2.056-.852 2.891 2.891 0 0 1-2.056.852zm0-5.314a2.394 2.394 0 0 0-1.7.705 2.407 2.407 0 0 0 0 3.4 2.467 2.467 0 0 0 3.4 0 2.407 2.407 0 0 0-1.7-4.106zM29.851 39.675a1.853 1.853 0 1 1 1.309-.543 1.846 1.846 0 0 1-1.309.543m2.106-3.958a2.978 2.978 0 1 0 0 4.213 2.976 2.976 0 0 0 0-4.213"/><path class="baa" d="M29.856 41.051h-.009a3.229 3.229 0 0 1 0-6.458h.008a3.229 3.229 0 0 1 .001 6.458zm0-.5a2.728 2.728 0 0 0 1.926-4.658 2.7 2.7 0 0 0-1.926-.8h-.009a2.729 2.729 0 0 0 0 5.458zm0-.627a2.1 2.1 0 0 1-1.487-3.589 2.152 2.152 0 0 1 2.973 0 2.1 2.1 0 0 1-1.491 3.589zm0-3.7a1.6 1.6 0 0 0-1.132 2.735 1.646 1.646 0 0 0 2.265 0 1.6 1.6 0 0 0-1.139-2.739zM30.99 24.87a1.853 1.853 0 1 1 1.309-.543 1.846 1.846 0 0 1-1.309.543m2.11-3.959a2.979 2.979 0 1 0 0 4.214 2.978 2.978 0 0 0 0-4.214"/><path class="baa" d="M30.993 26.247a3.229 3.229 0 0 1 0-6.458 3.206 3.206 0 0 1 2.281.945 3.229 3.229 0 0 1-2.281 5.513zm0-.5a2.729 2.729 0 0 0 0-5.458 2.729 2.729 0 0 0 0 5.458zm0-.626a2.1 2.1 0 0 1-1.493-3.588 2.155 2.155 0 0 1 2.973 0 2.1 2.1 0 0 1-1.481 3.588zm0-3.705a1.6 1.6 0 0 0-1.132 2.735 1.643 1.643 0 0 0 2.265 0 1.6 1.6 0 0 0-1.136-2.735z"/></symbol><symbol viewBox="0 0 57.921 62.42" id="spray-bottle" xmlns="http://www.w3.org/2000/svg"><path class="bba" d="M43.665 40.344a5.043 5.043 0 0 1 5.048 5.015v9.646H38.624v-9.646a5.036 5.036 0 0 1 5.042-5.015m0-1.452a6.5 6.5 0 0 0-6.49 6.467v10.372a.725.725 0 0 0 .724.726h11.538a.725.725 0 0 0 .724-.726V45.359a6.505 6.505 0 0 0-6.5-6.467"/><path class="bba" d="M54.406 30.3c.088.117.172.232.248.346a3.277 3.277 0 0 1 .612 1.926v28.4H30.458V40.946c0-3.172 2.809-4.78 4.3-5.954a.635.635 0 0 0 .153-.021zm-12.7-9.064h8.057c.026.2.05.372.077.592a12.064 12.064 0 0 0 3.2 6.88l.312.352-16.334 3.914.088-.087a17.475 17.475 0 0 0 1.841-2.15 14.826 14.826 0 0 0 2.759-9.5zM35.53 8.162h18.038a2.861 2.861 0 0 1 2.2.842 2.773 2.773 0 0 1-.008 3.7 2.851 2.851 0 0 1-2.192.842h-3.744a.724.724 0 0 0-.724.727 32.107 32.107 0 0 0 .469 5.507h-8.027a14.386 14.386 0 0 0-2.375-5.82.729.729 0 0 0-.244-.221.714.714 0 0 0-.316-.091 73.768 73.768 0 0 0-3.077-.082V8.162zm-5.873 0h4.425v5.4c-1.569.007-3.114.035-4.678.038a13.395 13.395 0 0 0-.29-.228c-.262-.2-.6-.462-.918-.758a3.071 3.071 0 0 1-1.139-1.814 1.352 1.352 0 0 1 .323-.637 6.7 6.7 0 0 1 .916-.9c.35-.293.708-.562 1-.793.134-.107.252-.2.362-.308zM29.3 6.711a15.691 15.691 0 0 0-3.058 2.551 2.516 2.516 0 0 0-.636 1.5 3.989 3.989 0 0 0 1.607 2.925 7.02 7.02 0 0 0 1.889 1.369c1.6 0 3.159-.029 4.729-.038a125.333 125.333 0 0 1-3.612 8.65.726.726 0 0 0-.072.278.712.712 0 0 0 .041.283.731.731 0 0 0 .376.416.724.724 0 0 0 .561.022.731.731 0 0 0 .407-.386c2.04-4.381 3.468-8.22 3.847-9.262.919.006 1.849.025 2.795.065a13 13 0 0 1-.4 14.805 16.212 16.212 0 0 1-1.69 1.971 30.436 30.436 0 0 1-2.064 1.869c-1.079.891-5 3.013-5 7.214v20.75a.725.725 0 0 0 .724.726h26.247a.725.725 0 0 0 .724-.726V32.568a4.877 4.877 0 0 0-.851-2.724 19.716 19.716 0 0 0-1.734-2.1 10.327 10.327 0 0 1-2.849-6.1A52.918 52.918 0 0 1 50.556 15h3.013a4.373 4.373 0 0 0 3.242-1.3A4.224 4.224 0 0 0 56.82 8a4.381 4.381 0 0 0-3.251-1.3H29.3zM.734 10.4a.726.726 0 0 0-.02 1.452h3.968A.726.726 0 0 0 4.7 10.4H.734zM8.922 10.4a.726.726 0 0 0-.022 1.45h3.976a.726.726 0 0 0 .024-1.45H8.922zM7.229 18.929a.718.718 0 0 0-.325.089L3.482 20.84a.726.726 0 0 0 .652 1.3l.026-.015L7.582 20.3a.726.726 0 0 0-.353-1.371M14.322 15.148a.72.72 0 0 0-.325.089q-1.72.914-3.421 1.821a.725.725 0 0 0 .654 1.295l.021-.012q1.711-.9 3.424-1.822a.726.726 0 0 0-.353-1.372"/><g class="bbb"><path class="bba" d="M3.66 0a.726.726 0 0 0-.332 1.372l3.423 1.821a.725.725 0 0 0 .705-1.268l-.026-.013L4.007.09A.716.716 0 0 0 3.66 0"/></g><path class="bba" d="M10.755 3.774a.726.726 0 0 0-.335 1.371c1.139.61 2.285 1.22 3.422 1.829a.725.725 0 0 0 .69-1.276h-.007c-1.14-.61-2.286-1.22-3.423-1.829a.723.723 0 0 0-.347-.091M17.848 7.555a.727.727 0 0 0-.334 1.372l2.753 1.473h-3.158a.726.726 0 0 0-.02 1.452h3.26l-2.682 1.428a.726.726 0 0 0 .652 1.3l.027-.015 3.422-1.822a.726.726 0 0 0-.038-1.309.729.729 0 0 0-.051-.7.727.727 0 0 0 .211-1 .718.718 0 0 0-.274-.248l-3.422-1.84a.719.719 0 0 0-.347-.091"/></symbol><symbol viewBox="0 0 19.021 18.09" id="star" xmlns="http://www.w3.org/2000/svg"><path class="bca" d="M9.511 15l-5.878 3.09 1.122-6.545L0 6.91l6.572-.955L9.511 0l2.938 5.955 6.572.955-4.755 4.635 1.122 6.545L9.511 15z"/></symbol><symbol viewBox="0 0 10.554 7.432" id="tick" xmlns="http://www.w3.org/2000/svg"><title>tick</title><path class="bda" d="M3.829 7.432L0 3.603l.707-.707 3.122 3.122L9.847 0l.707.707-6.725 6.725z"/></symbol><symbol viewBox="0 0 31 30.999" id="tools" xmlns="http://www.w3.org/2000/svg"><g class="bea"><path class="beb" d="M26.76 24.148l.965 3.577-3.577-.965 2.613-2.612zM9.43 15.166l-9.305 9.3a.428.428 0 0 0 0 .6l5.8 5.8a.428.428 0 0 0 .6 0l9.305-9.305-.6-.6-9 9-5.2-5.195 1.83-1.83 2.01 2.014a.428.428 0 0 0 .624-.586l-.019-.019-2.007-2.007 1.83-1.83L7.3 22.516a.428.428 0 1 0 .624-.586l-.014-.019L5.9 19.9l1.83-1.83 2.006 2.007a.428.428 0 1 0 .624-.586l-.019-.019-2.005-2.002 1.7-1.7-.605-.6zM5.636 6.278l18.74 18.74-1.22 1.22L4.416 7.5zM7.5 4.417l18.74 18.74-1.22 1.218L6.278 5.636 7.5 4.416zM5.234 3.069a2.324 2.324 0 0 1 1.587.654l-3.1 3.1a2.231 2.231 0 0 1-.03-3.126 2.14 2.14 0 0 1 1.543-.628zm.04-.89a3.03 3.03 0 0 0-2.2.873l-.01.009A3.143 3.143 0 0 0 3.129 7.5c.067.067.138.13.21.19a.456.456 0 0 0 .07.09L22.834 27.2a2.282 2.282 0 0 0 .32.231l5.1 1.374a.452.452 0 0 0 .554-.554l-1.373-5.095a2.563 2.563 0 0 0-.231-.321L7.776 3.41a.452.452 0 0 0-.087-.067A3.227 3.227 0 0 0 5.275 2.18zM24.768 0a.428.428 0 0 0-.3.125L15.166 9.43l.6.6 1.7-1.7 2.006 2.008a.427.427 0 0 0 .6.008l.01-.008a.428.428 0 0 0-.01-.6l-1.998-2.007L19.9 5.9l2.007 2.007a.428.428 0 0 0 .624-.586l-.015-.021-2.007-2 1.83-1.83 2.006 2.008a.428.428 0 0 0 .624-.586l-.019-.023-2.007-2.007 1.83-1.83 5.195 5.2-9 9 .6.605 9.305-9.3a.428.428 0 0 0 0-.605l-5.8-5.8A.428.428 0 0 0 24.767 0z"/></g></symbol><symbol viewBox="0 0 64.058 88.012" id="tree" xmlns="http://www.w3.org/2000/svg"><path class="bfa" d="M37.1 85.819h-3.91V64.068h-2.193v21.751H26.96a1.1 1.1 0 1 0 0 2.193H37.1a1.1 1.1 0 1 0 0-2.193"/><g class="bfb"><path class="bfa" d="M33.19 61.874V36.482L43.873 26.14a1.1 1.1 0 1 0-1.478-1.621l-.047.045-9.16 8.866V20.979a1.1 1.1 0 1 0-2.193 0V42.56l-9.282-8.985a1.1 1.1 0 1 0-1.551 1.552l.025.024 10.807 10.462v16.265a29.959 29.959 0 1 1 2.2 0M32.03 0a32.028 32.028 0 1 0 32.028 32.028A32.029 32.029 0 0 0 32.03 0"/></g></symbol><symbol viewBox="0 0 3.402 6.804" id="triangle-left" xmlns="http://www.w3.org/2000/svg"><title>triangle-left</title><path d="M3.402 0L0 3.402l3.402 3.402V0z"/></symbol><symbol viewBox="0 0 3.402 6.804" id="triangle-right" xmlns="http://www.w3.org/2000/svg"><path class="bha" d="M0 6.804l3.402-3.402L0 0v6.804z"/></symbol><symbol viewBox="0 0 20 16" id="twitter" xmlns="http://www.w3.org/2000/svg"><path d="M19.263 1.853a7.863 7.863 0 0 1-2.27.622A3.959 3.959 0 0 0 18.731.29a7.911 7.911 0 0 1-2.51.96 3.952 3.952 0 0 0-6.734 3.604A11.221 11.221 0 0 1 1.341.723a3.932 3.932 0 0 0-.535 1.988c0 1.37.698 2.58 1.758 3.289a3.94 3.94 0 0 1-1.79-.495v.05a3.955 3.955 0 0 0 3.17 3.875 3.973 3.973 0 0 1-1.785.068 3.956 3.956 0 0 0 3.692 2.744A7.928 7.928 0 0 1 0 13.88a11.183 11.183 0 0 0 6.058 1.775c7.27 0 11.244-6.022 11.244-11.244 0-.171-.003-.342-.01-.512a8.004 8.004 0 0 0 1.971-2.045z" fill-rule="evenodd"/></symbol><symbol viewBox="0 0 47.441 82.986" id="waves" xmlns="http://www.w3.org/2000/svg"><g class="bja"><path class="bjb" d="M42.448 1.719c2.071 2.072 3.01 3.771 2.993 5.292-.03 1.5-.953 3.075-3 5.118-2.383 2.384-3.574 4.378-3.574 6.375s1.19 3.992 3.574 6.375l.01.007c2.068 2.068 3 3.782 2.987 5.285s-.953 3.074-3 5.118c-2.383 2.383-3.574 4.378-3.574 6.375s1.19 3.991 3.574 6.375l.011.007c3.98 3.982 3.978 6.414-.01 10.4-2.385 2.383-3.576 4.378-3.576 6.375s1.19 3.991 3.574 6.375a1 1 0 1 0 1.439-1.389l-.025-.025c-3.987-3.988-3.984-5.935 0-9.922 4.765-4.766 4.767-8.477 0-13.239l-.011-.006c-3.98-3.983-3.977-5.93.006-9.914 2.437-2.436 3.542-4.439 3.583-6.492.063-2.133-1.1-4.264-3.578-6.746l-.011-.007c-3.98-3.982-3.977-5.93.006-9.913 2.437-2.437 3.542-4.44 3.583-6.493.063-2.135-1.1-4.264-3.578-6.746a1 1 0 0 0-1.404 1.416"/></g><path class="bjb" d="M29.492 13.212c2.072 2.071 3.01 3.77 2.993 5.291-.03 1.5-.953 3.075-3 5.118C27.1 26 25.914 28 25.914 30s1.191 3.992 3.575 6.375l.01.007c2.067 2.069 3 3.782 2.986 5.285s-.953 3.075-3 5.118c-2.384 2.383-3.575 4.378-3.575 6.375s1.191 3.992 3.575 6.375l.015.003c3.98 3.982 3.978 6.414-.011 10.4-2.384 2.383-3.575 4.378-3.575 6.375s1.191 3.991 3.575 6.375a1 1 0 0 0 1.411-1.412c-3.987-3.987-3.986-5.934 0-9.92 4.763-4.767 4.766-8.478 0-13.24l-.012-.006c-3.98-3.982-3.976-5.93.008-9.913 2.437-2.437 3.542-4.44 3.581-6.493.065-2.133-1.1-4.264-3.577-6.746l-.012-.007c-3.98-3.982-3.976-5.93.008-9.913 2.437-2.437 3.542-4.44 3.581-6.493.065-2.135-1.1-4.263-3.577-6.745a1 1 0 0 0-1.414 1.412"/><g class="bjc"><path class="bjb" d="M17.947 69.782c-2.086-2.086-3.013-3.642-2.98-5.034.024-1.36.915-2.823 2.98-4.887 4.765-4.765 4.765-8.476 0-13.238l-.011-.007c-2.08-2.08-3.006-3.648-2.973-5.027.024-1.36.914-2.822 2.98-4.886 4.765-4.766 4.765-8.477 0-13.239l-.012-.006c-2.08-2.081-3.005-3.622-2.972-5.028.023-1.36.914-2.822 2.98-4.886 4.765-4.765 4.765-8.477 0-13.238a1 1 0 0 0-1.44 1.388l.025.025c3.987 3.987 3.987 6.42 0 10.41-2.465 2.466-3.533 4.339-3.566 6.266v.092c0 1.954 1.1 3.93 3.565 6.393l.011.007c3.98 3.982 3.978 6.413-.011 10.4-2.465 2.465-3.532 4.338-3.566 6.265v.092c0 1.953 1.1 3.93 3.566 6.393l.01.006c3.982 3.983 3.978 6.415-.01 10.4-2.465 2.465-3.532 4.34-3.566 6.265v.092c0 1.954 1.1 3.93 3.565 6.393a1 1 0 0 0 1.41.005l.005-.005a1 1 0 0 0 .008-1.414"/></g><g class="bjd"><path class="bjb" d="M4.99 81.275C1 77.288 1 75.342 4.99 71.354c4.765-4.766 4.766-8.476 0-13.239l-.009-.005C1 54.126 1 52.179 4.988 48.2c2.437-2.44 3.542-4.443 3.582-6.5.074-2.133-1.094-4.263-3.577-6.745l-.012-.005C1 30.967 1 29.022 4.988 25.037 7.425 22.6 8.53 20.6 8.57 18.544c.074-2.134-1.094-4.264-3.577-6.744a1 1 0 0 0-1.439 1.389l.025.025c2.07 2.07 3.021 3.769 2.992 5.286-.03 1.5-.953 3.075-3 5.118C1.19 26.006 0 28 0 30s1.191 3.992 3.575 6.375l.01.007c2.067 2.068 3.017 3.783 2.986 5.285s-.953 3.075-3 5.118C1.19 49.165 0 51.162 0 53.157s1.191 3.992 3.575 6.375l.011.007c3.98 3.982 3.978 6.414-.011 10.4C1.19 72.326 0 74.32 0 76.317s1.191 3.991 3.575 6.375a1 1 0 0 0 1.41 0 1 1 0 0 0 0-1.417"/></g></symbol><symbol viewBox="0 0 20.758 20.77" id="x" xmlns="http://www.w3.org/2000/svg"><defs><style>.bka{fill:#3684de}</style></defs><title>x</title><path class="bka" d="M0 .719L.707.012 20.76 20.063l-.708.707z"/><path class="bka" d="M0 20.052L20.05.001l.708.707L.706 20.759z"/></symbol></svg>